<?xml version="1.0" standalone="no"?>
<!DOCTYPE svg PUBLIC "-//W3C//DTD SVG 20010904//EN"
 "http://www.w3.org/TR/2001/REC-SVG-20010904/DTD/svg10.dtd">
<svg version="1.0" xmlns="http://www.w3.org/2000/svg"
 width="194.000000pt" height="77.000000pt" viewBox="0 0 194.000000 77.000000"
 preserveAspectRatio="xMidYMid meet">

<g transform="translate(0.000000,77.000000) scale(0.100000,-0.100000)"
fill="#000000" stroke="none">
<path d="M790 405 c0 -88 1 -95 20 -95 11 0 20 7 20 15 0 8 4 15 9 15 5 0 14
-7 21 -15 7 -8 18 -15 25 -15 22 0 25 27 4 46 -18 16 -18 18 -2 36 23 26 3 49
-27 30 -29 -18 -30 -16 -30 33 0 38 -3 45 -20 45 -19 0 -20 -7 -20 -95z"/>
<path d="M1067 493 c-4 -3 -7 -46 -7 -94 l0 -87 46 0 c52 0 84 23 84 62 0 30
-46 69 -72 61 -15 -5 -18 -1 -18 29 0 34 -15 47 -33 29z m71 -120 c-4 -22 -22
-20 -26 1 -2 10 3 16 13 16 10 0 15 -7 13 -17z"/>
<path d="M1627 493 c-14 -13 -6 -33 13 -33 13 0 20 7 20 20 0 19 -20 27 -33
13z"/>
<path d="M930 420 c-11 -11 -20 -31 -20 -45 0 -55 77 -87 113 -47 37 41 6 112
-48 112 -14 0 -34 -9 -45 -20z m70 -52 c0 -15 -32 -21 -40 -7 -13 20 9 43 26
28 8 -6 14 -16 14 -21z"/>
<path d="M1220 413 c-39 -50 -8 -103 62 -103 31 0 38 4 38 20 0 16 -7 20 -32
21 l-33 2 35 6 c41 7 51 33 24 62 -25 28 -68 24 -94 -8z m60 -23 c0 -5 -4 -10
-10 -10 -5 0 -10 5 -10 10 0 6 5 10 10 10 6 0 10 -4 10 -10z"/>
<path d="M1370 422 c-44 -36 -17 -112 40 -112 30 0 56 23 45 40 -4 6 -18 9
-33 8 -18 -2 -27 2 -30 15 -3 13 3 17 27 17 37 0 50 19 26 37 -25 18 -49 16
-75 -5z"/>
<path d="M1492 420 c-43 -40 -14 -110 46 -110 37 0 62 28 62 68 0 56 -66 81
-108 42z m68 -45 c0 -19 -20 -29 -32 -17 -15 15 -2 43 17 36 8 -3 15 -12 15
-19z"/>
<path d="M1624 426 c-3 -7 -4 -35 -2 -62 2 -37 7 -50 21 -52 15 -3 17 5 17 62
0 53 -3 66 -15 66 -9 0 -18 -6 -21 -14z"/>
<path d="M1684 426 c-3 -8 -4 -35 -2 -62 3 -41 6 -49 23 -49 16 0 21 8 23 38
2 28 8 37 22 37 14 0 20 -9 22 -37 2 -30 7 -38 23 -38 17 0 20 6 19 43 0 25
-7 50 -16 59 -21 20 -107 27 -114 9z"/>
</g>
</svg>
